<svg xmlns="http://www.w3.org/2000/svg" version="1.1" xmlns:xlink="http://www.w3.org/1999/xlink" xmlns:svgjs="http://svgjs.com/svgjs" id="BgenPttrnSvgRootPreview" width="100%" height="100%"><defs><pattern x="0" y="0" width="1" height="1" patternUnits="userSpaceOnUse" id="BgenPttrnLayer1"><g id="PatternRootContent1"><g id="BgenPttrnLayer1background"><rect width="1" height="1" id="BgenPttrnBackground1" fill="#b00000"></rect></g></g></pattern><pattern x="0" y="0" width="80" height="46" patternUnits="userSpaceOnUse" id="BgenPttrnLayer2" patternTransform="matrix(0.5656854249492381,0.565685424949238,-0.565685424949238,0.5656854249492381,0,0)"><g id="PatternRootContent2"><g id="BgenPttrnLayer2Element1"><use xlink:href="#BgenPttrnElement1" x="-40" y="26" transform="translate(-20, 46) scale(1) translate(20, -46) rotate(45, -20, 46)"></use><use xlink:href="#BgenPttrnElement1" x="-40" y="-20" transform="translate(-20, 0) scale(1) translate(20, 0) rotate(45, -20, 0)"></use><use xlink:href="#BgenPttrnElement1" x="0" y="3" transform="translate(20, 23) scale(1) translate(-20, -23) rotate(45, 20, 23)"></use><use xlink:href="#BgenPttrnElement1" x="0" y="-43" transform="translate(20, -23) scale(1) translate(-20, 23) rotate(45, 20, -23)"></use><use xlink:href="#BgenPttrnElement1" x="0" y="49" transform="translate(20, 69) scale(1) translate(-20, -69) rotate(45, 20, 69)"></use><use xlink:href="#BgenPttrnElement1" x="40" y="26" transform="translate(60, 46) scale(1) translate(-60, -46) rotate(45, 60, 46)"></use><use xlink:href="#BgenPttrnElement1" x="40" y="-20" transform="translate(60, 0) scale(1) translate(-60, 0) rotate(45, 60, 0)"></use><use xlink:href="#BgenPttrnElement1" x="80" y="3" transform="translate(100, 23) scale(1) translate(-100, -23) rotate(45, 100, 23)"></use><use xlink:href="#BgenPttrnElement1" x="80" y="3" transform="translate(100, 23) scale(1) translate(-100, -23) rotate(45, 100, 23)"></use></g></g></pattern><symbol id="BgenPttrnElement1"><polygon points="0,20 20,40 20,20 40,20 20,0 0,0" class="fill_color_0" fill="#ff0000"></polygon></symbol></defs><rect width="100%" height="100%" id="BgenPttrnRctLayer1" fill="url(#BgenPttrnLayer1)"></rect><rect width="100%" height="100%" id="BgenPttrnRctLayer2" fill="url(#BgenPttrnLayer2)"></rect></svg>